<?xml version="1.0" standalone="no"?>
<!DOCTYPE svg PUBLIC "-//W3C//DTD SVG 20010904//EN"
 "http://www.w3.org/TR/2001/REC-SVG-20010904/DTD/svg10.dtd">
<svg version="1.0" xmlns="http://www.w3.org/2000/svg"
 width="398.000000pt" height="398.000000pt" viewBox="0 0 398.000000 398.000000"
 preserveAspectRatio="xMidYMid meet">
<metadata>
Created by potrace 1.11, written by Peter Selinger 2001-2013
</metadata>
<g transform="translate(0.000000,398.000000) scale(0.100000,-0.100000)"
fill="#000000" stroke="none">
<path d="M1734 3216 c-9 -36 -52 -71 -124 -100 -36 -15 -89 -43 -119 -62 l-54
-36 7 26 c8 33 -3 33 -69 2 -59 -27 -118 -88 -135 -140 -6 -20 -16 -36 -22
-36 -6 0 -27 -12 -46 -26 -50 -39 -84 -120 -85 -202 l-1 -65 -27 32 -27 33
-13 -39 c-19 -55 -17 -132 5 -168 17 -30 17 -32 -4 -95 -22 -65 -22 -113 1
-204 6 -21 12 -66 14 -100 3 -52 24 -136 50 -198 5 -13 3 -18 -8 -18 -9 0 -29
-11 -45 -25 -82 -69 -63 -277 38 -417 36 -52 50 -61 158 -115 2 -1 14 -57 28
-125 33 -169 69 -239 182 -357 72 -76 85 -94 72 -101 -9 -5 -24 -26 -34 -47
-17 -39 -19 -39 -124 -66 -187 -46 -362 -94 -368 -99 -2 -3 7 -13 21 -22 24
-16 33 -14 221 35 108 28 202 53 208 55 7 3 17 -15 24 -44 7 -26 37 -99 68
-162 l55 -114 73 79 72 79 16 -40 c14 -34 24 -44 65 -59 26 -10 65 -29 86 -42
38 -24 51 -18 20 9 -24 21 -99 58 -117 58 -9 0 -25 22 -37 50 -12 28 -26 50
-33 50 -6 0 -39 -30 -74 -66 -36 -38 -67 -63 -72 -58 -14 15 -67 156 -80 215
-11 49 -10 60 5 90 37 72 59 83 101 50 24 -19 24 -20 4 -26 -12 -4 -27 -1 -35
5 -12 10 -15 9 -15 -4 0 -34 23 -58 190 -201 160 -137 210 -189 210 -214 0 -6
7 -11 15 -11 20 0 19 9 -8 51 -24 40 -90 102 -242 228 -55 46 -101 87 -103 92
-2 4 13 11 32 15 30 5 44 1 84 -25 76 -48 128 -63 222 -63 95 0 153 16 231 64
40 24 56 29 84 24 19 -4 35 -10 34 -14 0 -4 -28 -32 -62 -62 -78 -69 -156
-156 -201 -225 -45 -67 -52 -85 -35 -84 8 0 34 32 59 72 28 45 93 120 173 198
70 70 127 134 127 142 0 9 -6 14 -13 11 -7 -2 -24 -1 -36 4 l-23 8 25 17 c57
37 125 -42 113 -129 -6 -44 -32 -128 -61 -198 l-16 -39 -62 67 c-34 36 -67 66
-73 66 -19 0 -35 -26 -41 -67 -4 -29 -19 -52 -61 -96 -35 -35 -50 -57 -41 -57
9 0 39 24 66 53 38 40 52 64 58 95 4 23 11 42 15 42 5 0 37 -32 71 -70 35 -39
66 -70 70 -70 9 0 64 125 94 215 15 44 28 81 29 82 1 1 29 -5 61 -13 33 -9
125 -31 204 -50 133 -31 145 -32 167 -17 33 21 24 30 -44 43 -31 6 -133 30
-226 53 l-168 41 -21 43 c-12 24 -23 43 -26 43 -4 0 -12 4 -19 9 -10 6 6 28
63 85 131 134 167 203 200 394 l18 103 48 20 c94 41 175 158 199 288 19 108
-2 199 -56 238 -22 16 -25 23 -16 39 14 26 62 331 62 392 0 42 3 50 24 60 28
13 66 64 51 69 -38 13 -60 31 -58 49 4 36 -29 169 -55 217 -15 27 -36 57 -48
66 -20 15 -20 20 -8 43 15 28 30 108 21 108 -4 0 -21 -9 -39 -20 -18 -11 -45
-20 -59 -20 -22 0 -28 7 -38 41 -19 62 -89 131 -179 175 -42 21 -87 51 -100
66 -32 37 -97 75 -147 84 -22 4 -58 16 -80 28 -29 15 -63 22 -123 25 -90 3
-149 -8 -223 -45 l-46 -23 -12 23 c-7 12 -26 30 -41 40 -29 17 -30 16 -36 -8z
m-99 -777 c39 -4 95 -15 125 -24 78 -24 216 -23 310 2 50 13 114 20 191 22 64
1 143 6 175 11 53 7 62 6 90 -16 43 -32 102 -123 121 -187 8 -28 22 -64 29
-79 9 -17 10 -28 4 -28 -14 0 -12 -57 5 -142 12 -53 15 -129 15 -283 -1 -195
-4 -220 -31 -345 -36 -161 -48 -193 -66 -178 -18 14 -16 2 3 -27 18 -28 10
-53 -12 -34 -19 16 -18 0 3 -23 9 -10 13 -21 9 -25 -4 -5 -12 0 -17 10 -15 27
-30 20 -17 -8 6 -13 15 -22 19 -19 5 3 9 1 9 -5 0 -24 -25 -22 -45 3 -22 27
-38 26 -28 -2 5 -11 2 -14 -10 -9 -19 7 -24 -17 -7 -28 6 -3 10 -11 10 -18 0
-6 -6 -2 -14 8 -13 18 -14 17 -42 -8 -16 -15 -33 -27 -38 -27 -5 0 -6 -19 -3
-43 4 -32 3 -38 -5 -24 -5 11 -11 24 -12 30 -1 7 -6 18 -10 26 -6 10 -5 12 2
7 14 -8 12 20 -2 43 -6 10 -5 12 2 7 13 -8 15 4 6 28 -3 9 -11 13 -17 9 -6 -3
-7 -1 -3 6 5 7 -3 22 -18 36 -14 13 -26 21 -26 18 0 -3 -7 0 -15 7 -13 11 -14
10 -9 -6 7 -19 7 -19 -14 0 -17 15 -25 16 -36 7 -9 -7 -17 -8 -20 -2 -3 5 -21
7 -39 5 -48 -7 -59 -13 -51 -26 6 -10 4 -11 -7 0 -19 18 -49 15 -49 -5 0 -15
-2 -16 -10 -3 -8 12 -13 13 -29 3 -13 -8 -22 -9 -26 -3 -4 6 -11 7 -17 4 -6
-4 -26 -7 -44 -6 -18 1 -36 -3 -40 -9 -4 -7 -12 -5 -23 5 -10 9 -28 14 -41 11
-13 -2 -29 0 -36 6 -9 7 -16 5 -24 -11 -6 -12 -14 -19 -17 -16 -4 3 -15 -1
-25 -11 -10 -9 -18 -13 -18 -9 0 4 12 18 28 32 15 14 21 23 15 19 -7 -3 -13
-1 -13 4 0 22 -39 10 -64 -20 -14 -17 -26 -26 -26 -21 0 5 7 15 15 22 13 11
13 15 3 23 -9 6 -8 7 5 3 11 -4 16 -2 12 5 -9 13 -95 9 -114 -5 -12 -9 -13 -8
-6 3 6 10 -3 8 -26 -6 -19 -11 -33 -25 -32 -32 2 -6 -1 -11 -6 -11 -5 0 -13
-15 -17 -33 -11 -45 -11 -51 -3 -62 6 -9 9 -45 4 -45 -2 0 -9 8 -16 17 -10 11
-10 14 -1 9 6 -4 12 -3 12 2 0 14 -60 71 -82 78 -10 3 -16 10 -13 15 9 13 -9
11 -23 -3 -9 -9 -12 -8 -12 6 0 9 -4 14 -10 11 -6 -4 -10 8 -11 27 0 18 -3 27
-6 20 -7 -17 -23 -5 -23 19 0 11 -4 17 -10 14 -5 -3 -10 2 -10 12 0 15 -2 16
-10 3 -8 -12 -10 -11 -10 5 0 12 -15 87 -34 167 l-34 146 8 194 c9 198 16 248
51 355 18 55 19 70 10 139 l-11 77 48 51 c27 28 52 64 56 79 9 37 119 91 151
74 11 -6 52 -14 90 -18z m-518 -671 c6 -7 13 -23 16 -35 5 -22 4 -22 -25 -7
-42 22 -48 9 -9 -24 32 -26 32 -28 17 -57 -17 -32 -21 -92 -8 -113 5 -8 9 4 9
31 0 24 6 54 15 66 14 20 16 19 31 -41 9 -35 18 -83 21 -108 3 -25 8 -54 12
-63 9 -24 -15 -22 -45 6 l-26 22 20 -24 c11 -13 30 -27 41 -31 20 -8 41 -70
23 -70 -4 0 -27 15 -51 33 -65 49 -119 162 -126 260 -5 87 10 144 42 157 29
12 32 12 43 -2z m1764 -24 c10 -12 14 -44 14 -108 0 -77 -4 -100 -27 -148 -34
-74 -71 -122 -115 -149 -19 -12 -36 -20 -38 -18 -10 11 10 62 29 69 11 4 30
18 41 31 l20 24 -26 -22 c-14 -13 -31 -23 -38 -23 -9 0 -11 7 -7 23 4 12 9 56
13 97 3 41 12 88 21 104 l14 30 14 -25 c7 -13 14 -44 14 -69 0 -33 3 -41 10
-30 15 23 12 77 -6 112 -16 32 -16 32 17 62 l33 29 -31 -6 -32 -6 17 29 c17
30 34 29 63 -6z m-1191 -623 c0 -5 -7 -12 -16 -15 -14 -5 -15 -4 -4 9 14 17
20 19 20 6z m528 -26 c-3 -3 -9 2 -12 12 -6 14 -5 15 5 6 7 -7 10 -15 7 -18z
m-891 -27 c-3 -7 -5 -2 -5 12 0 14 2 19 5 13 2 -7 2 -19 0 -25z m322 6 c-11
-14 -10 -16 6 -13 11 2 31 -3 44 -10 13 -7 36 -11 52 -9 16 3 30 1 31 -4 2 -4
30 -11 63 -14 33 -3 66 -7 74 -10 8 -3 18 1 23 8 6 10 10 10 19 -2 9 -12 12
-13 16 -1 5 11 7 11 15 0 6 -9 11 -10 14 -4 2 6 23 9 46 7 36 -4 40 -2 34 14
-6 16 -5 17 11 3 18 -16 53 -15 53 1 0 4 9 6 20 3 15 -4 20 0 21 13 0 11 3 14
6 7 2 -7 14 -13 24 -13 13 0 18 4 13 13 -5 9 -4 9 6 0 8 -7 20 -9 35 -3 28 11
66 2 82 -19 16 -21 16 -34 1 -25 -7 4 -4 -3 7 -17 12 -14 13 -19 4 -11 -14 11
-18 5 -34 -43 -9 -31 -14 -59 -11 -62 3 -4 6 -1 6 7 0 10 3 10 15 0 8 -7 15
-18 14 -24 0 -7 -2 -6 -6 2 -7 18 -22 15 -18 -5 1 -10 0 -12 -2 -5 -8 23 -23
12 -23 -19 0 -16 -4 -28 -9 -24 -9 5 -20 -19 -25 -51 -1 -7 -6 -17 -11 -21 -4
-4 -5 -2 -1 5 7 11 4 11 -13 0 -12 -7 -21 -16 -21 -20 0 -4 -7 -4 -17 -1 -12
5 -14 3 -8 -7 6 -10 4 -12 -7 -7 -9 3 -19 3 -22 -1 -4 -3 -17 -7 -29 -9 -12
-2 -30 -13 -41 -26 -17 -20 -18 -21 -12 -2 5 16 1 21 -16 22 -12 1 -30 12 -39
25 -17 22 -17 23 9 34 23 11 10 12 -83 12 -70 1 -103 -3 -90 -8 11 -5 31 -9
45 -10 l25 -1 -23 -10 c-13 -5 -21 -12 -19 -16 2 -5 -4 -16 -15 -25 -10 -10
-18 -13 -18 -7 0 7 -16 9 -45 6 -25 -4 -43 -2 -40 3 3 4 -9 12 -27 16 -47 12
-51 11 -54 -9 -1 -11 -5 -22 -8 -25 -4 -3 -4 11 0 32 5 33 3 38 -11 33 -9 -4
-14 -3 -10 3 3 6 -1 13 -9 16 -9 3 -16 15 -16 26 0 12 -4 17 -12 12 -6 -4 -8
-3 -5 4 9 13 -2 44 -13 37 -4 -3 -8 1 -7 8 1 40 -4 78 -10 74 -5 -3 -9 6 -9
19 -3 43 -12 56 -36 49 -23 -6 -23 -6 1 8 32 19 60 5 97 -50 62 -92 148 -126
314 -126 142 0 213 22 275 88 74 78 95 104 95 114 0 15 -39 24 -54 12 -20 -17
-137 -38 -246 -46 -102 -7 -255 6 -354 31 -33 9 -67 13 -77 11 -10 -3 -20 2
-23 10 -3 8 -11 11 -17 7 -8 -4 -9 -3 -5 5 6 9 11 9 22 0 12 -10 20 -8 42 9
33 25 39 27 21 6z m371 6 c0 -5 -2 -10 -4 -10 -3 0 -8 5 -11 10 -3 6 -1 10 4
10 6 0 11 -4 11 -10z m125 -10 c3 -5 1 -10 -4 -10 -6 0 -11 5 -11 10 0 6 2 10
4 10 3 0 8 -4 11 -10z m-252 -15 c-3 -9 -8 -14 -10 -11 -3 3 -2 9 2 15 9 16
15 13 8 -4z m-528 -15 c3 -5 1 -10 -4 -10 -6 0 -11 5 -11 10 0 6 2 10 4 10 3
0 8 -4 11 -10z m215 -60 c0 -5 -4 -10 -10 -10 -5 0 -10 5 -10 10 0 6 5 10 10
10 6 0 10 -4 10 -10z m211 -6 c110 -17 313 -14 413 6 27 6 51 8 54 6 11 -11
-47 -68 -94 -91 -98 -50 -294 -51 -391 -1 -44 22 -117 96 -95 96 5 0 55 -7
113 -16z m-261 -54 c0 -5 -2 -10 -4 -10 -3 0 -8 5 -11 10 -3 6 -1 10 4 10 6 0
11 -4 11 -10z m34 -6 c3 -8 2 -12 -4 -9 -6 3 -10 10 -10 16 0 14 7 11 14 -7z
m26 -59 c0 -8 -4 -16 -9 -19 -5 -3 -8 5 -8 19 0 14 3 22 8 19 5 -3 9 -11 9
-19z m-53 -12 c-16 -16 -17 -16 -17 0 0 10 5 15 10 12 6 -3 10 -1 10 6 0 7 3
9 7 5 4 -3 -1 -14 -10 -23z m23 -58 c7 15 8 13 6 -13 -2 -17 -6 -35 -11 -40
-5 -4 -5 -1 -1 6 4 6 2 12 -4 12 -6 0 -9 4 -5 9 3 5 1 12 -5 16 -5 3 -10 14
-9 23 0 11 4 9 11 -8 10 -24 10 -24 18 -5z m756 0 c-1 -8 -5 -17 -8 -21 -5 -4
-4 16 1 34 3 9 9 -1 7 -13z m59 -15 c3 -5 1 -10 -4 -10 -6 0 -11 5 -11 10 0 6
2 10 4 10 3 0 8 -4 11 -10z m-760 -29 c3 -5 2 -12 -3 -15 -5 -3 -9 1 -9 9 0
17 3 19 12 6z m392 3 c-8 -9 -47 -13 -51 -6 -2 4 9 8 25 8 17 1 28 0 26 -2z
m289 -9 c-1 -8 -5 -17 -8 -21 -5 -4 -4 16 1 34 3 9 9 -1 7 -13z m-629 -12
c-14 -4 -16 -8 -6 -19 7 -9 8 -14 1 -14 -15 0 -25 18 -17 30 3 6 14 9 23 9 15
-1 15 -2 -1 -6z m657 -18 c-4 -8 -8 -15 -10 -15 -2 0 -4 7 -4 15 0 8 4 15 10
15 5 0 7 -7 4 -15z m-560 -24 c-2 -3 -12 3 -22 13 -16 17 -16 18 5 5 12 -7 20
-15 17 -18z m254 4 c-3 -3 -9 2 -12 12 -6 14 -5 15 5 6 7 -7 10 -15 7 -18z
m202 -6 c0 -6 -4 -7 -10 -4 -5 3 -10 11 -10 16 0 6 5 7 10 4 6 -3 10 -11 10
-16z m-40 -10 c7 -11 9 -23 6 -27 -3 -3 -6 0 -6 7 0 7 -5 9 -12 5 -7 -5 -8 -3
-3 6 4 7 2 16 -6 21 -10 6 -10 9 -2 9 7 0 17 -9 23 -21z m-213 -11 c-3 -8 -6
-5 -6 6 -1 11 2 17 5 13 3 -3 4 -12 1 -19z m-209 -13 c-3 -3 -9 2 -12 12 -6
14 -5 15 5 6 7 -7 10 -15 7 -18z m103 4 c-2 -8 -4 -28 -5 -45 0 -19 -5 -30
-12 -27 -13 5 -14 33 -1 33 6 0 7 3 4 6 -3 4 -2 15 3 25 7 11 6 19 0 22 -6 3
-5 4 2 3 7 -2 11 -10 9 -17z m70 -6 c-12 -20 -14 -14 -5 12 4 9 9 14 11 11 3
-2 0 -13 -6 -23z m204 17 c3 -6 -1 -7 -9 -4 -18 7 -21 14 -7 14 6 0 13 -4 16
-10z m-408 -22 c-3 -8 -6 -5 -6 6 -1 11 2 17 5 13 3 -3 4 -12 1 -19z m301 -38
c0 -9 -3 -7 -8 5 -5 11 -8 29 -8 40 0 16 2 15 8 -5 4 -14 8 -32 8 -40z m189
28 c-3 -8 -6 -5 -6 6 -1 11 2 17 5 13 3 -3 4 -12 1 -19z m-80 6 c-3 -3 -12 -4
-19 -1 -8 3 -5 6 6 6 11 1 17 -2 13 -5z m50 -17 c0 -8 -6 -14 -13 -14 -7 0
-10 6 -7 14 3 7 8 13 12 13 4 0 8 -6 8 -13z m-261 -12 c-6 16 -5 18 5 7 11
-10 10 -16 -5 -30 -11 -9 -16 -11 -12 -4 4 6 3 12 -3 12 -5 0 -11 -3 -14 -7
-2 -5 -3 -3 -1 3 1 6 -3 17 -9 24 -7 7 1 4 18 -6 29 -19 29 -19 21 1z m45 6
c-8 -5 -10 -14 -6 -22 6 -11 5 -11 -5 -2 -14 12 -6 33 13 33 8 0 7 -3 -2 -9z
m-166 -12 c-3 -3 -19 -6 -37 -6 -23 -1 -27 1 -15 6 23 8 57 9 52 0z m135 -56
c0 -21 -3 -24 -9 -14 -5 8 -7 20 -4 28 8 21 13 15 13 -14z m-46 1 c3 -8 2 -12
-4 -9 -6 3 -10 10 -10 16 0 14 7 11 14 -7z"/>
<path d="M1475 2065 c-42 -22 -93 -82 -105 -124 -11 -41 -6 -50 18 -33 9 7 42
25 72 40 71 35 170 36 278 3 40 -12 77 -19 82 -16 19 12 11 63 -12 80 -68 47
-278 79 -333 50z"/>
<path d="M2265 2065 c-33 -7 -82 -22 -110 -33 -44 -17 -50 -23 -53 -52 -2 -18
0 -36 5 -41 5 -5 39 0 78 12 102 31 226 31 285 0 25 -13 53 -30 62 -38 46 -41
35 35 -15 101 -50 64 -124 79 -252 51z"/>
<path d="M1500 1805 c-42 -19 -96 -69 -116 -107 -13 -26 -12 -29 26 -69 l40
-42 87 7 c50 3 112 2 144 -4 64 -12 89 -5 134 34 l30 26 -29 55 c-41 79 -92
108 -200 112 -58 2 -91 -1 -116 -12z m37 -64 c-23 -41 -23 -41 8 -113 6 -16 1
-18 -39 -18 -37 0 -52 5 -70 25 -14 15 -22 33 -19 44 10 39 83 94 135 100 3 1
-3 -17 -15 -38z m223 -13 c64 -64 42 -118 -47 -118 l-44 0 20 26 c27 34 27 84
1 117 l-21 26 31 -10 c17 -6 44 -25 60 -41z m-141 28 c17 -20 2 -48 -23 -44
-24 3 -34 37 -14 49 18 12 24 11 37 -5z"/>
<path d="M2240 1811 c-60 -19 -91 -43 -121 -97 -24 -41 -34 -52 -41 -42 -6 8
-7 -27 -3 -92 7 -104 21 -195 25 -155 3 38 -1 150 -7 185 l-6 34 31 -26 c44
-37 61 -40 131 -29 34 6 100 7 146 4 l85 -6 35 37 c19 21 35 45 35 55 0 27
-70 102 -114 122 -43 19 -147 24 -196 10z m186 -50 c45 -20 84 -63 84 -92 0
-34 -40 -59 -92 -59 -45 0 -61 11 -37 25 34 22 28 113 -9 135 -31 18 10 11 54
-9z m-190 -13 c-22 -31 -20 -80 5 -112 l20 -26 -43 0 c-48 0 -88 22 -88 48 0
38 72 112 108 112 10 0 9 -5 -2 -22z m72 13 c20 -12 10 -46 -14 -49 -25 -4
-40 24 -23 44 13 16 19 17 37 5z"/>
<path d="M1796 1288 c-33 -47 -18 -83 39 -92 26 -4 49 -17 67 -36 38 -42 89
-42 127 0 18 20 41 33 67 37 21 3 42 11 46 17 14 20 8 54 -13 77 -19 23 -20
23 -10 2 6 -12 11 -33 11 -46 0 -21 -6 -25 -42 -30 -29 -4 -50 -15 -70 -36
-37 -40 -69 -40 -106 0 -26 28 -39 33 -104 38 -12 1 -10 49 2 72 14 26 5 24
-14 -3z"/>
</g>
</svg>
